# xmcd
#
# Track frame offsets:
#	150
#	15190
#	28293
#	47756
#	61777
#	75417
#	92772
#	105740
#	122423
#	138425
#	151802
#	167253
#	180056
#	193555
#
# Disc length: 2759 seconds
#
# Revision: 0
# Processed by: cddbd v1.5.2PL0 Copyright (c) Steve Scherf et al.
# Submitted via: EasyCDDAExtractor 2010.6.0.0
#
DISCID=950ac50e
DTITLE=Various Artist - Mr Music Country  08 2011
DYEAR=2011
DGENRE=Country
TTITLE0=Aaron Watson - The Road
TTITLE1=Tone Silvia Holen - When the train left town
TTITLE2=Mike Manuel - Gonna find me a doctor
TTITLE3=Tish Hinojosa - Count me in
TTITLE4=Joe Paul Nichols and Kenny Seratt - Cherokee maiden
TTITLE5=Leland Martin and Country Dan Dixon - Trucker's DJ
TTITLE6=Rachel Cain - Moon over Memphis
TTITLE7=Sivert Björdal - Memories
TTITLE8=Mark D. Manders - Clovis highway (Edited ver.)
TTITLE9=Levi Mullen - I feel at home in a honky tonk
TTITLE10=Sara Evans - Alone
TTITLE11=Johnny Cash - Thunderball
TTITLE12=Suzie Merwine and The Great Johnny C - Daddy's Martin
TTITLE13=Alan Jackson - That's what I'd be like without you
EXTD=
EXTT0=
EXTT1=
EXTT2=
EXTT3=
EXTT4=
EXTT5=
EXTT6=
EXTT7=
EXTT8=
EXTT9=
EXTT10=
EXTT11=
EXTT12=
EXTT13=
PLAYORDER=
